<?xml version="1.0" encoding="UTF-8" standalone="no"?>
<!DOCTYPE svg PUBLIC "-//W3C//DTD SVG 1.1//EN" "http://www.w3.org/Graphics/SVG/1.1/DTD/svg11.dtd">
<svg width="100%" height="100%" viewBox="0 0 100 125" version="1.1" xmlns="http://www.w3.org/2000/svg" xmlns:xlink="http://www.w3.org/1999/xlink" xml:space="preserve" xmlns:serif="http://www.serif.com/" style="fill-rule:evenodd;clip-rule:evenodd;stroke-linejoin:round;stroke-miterlimit:2;">
    <g>
        <path d="M96.166,25.702C95.968,24.977 95.264,24.518 94.52,24.612C93.789,24.71 93.118,24.989 92.544,25.429C85.582,28.693 78.895,33.749 72.412,38.65C69.926,40.529 67.578,42.305 65.286,43.924C58.567,48.581 51.885,53.475 45.424,58.471C44.258,59.244 43.343,59.894 42.784,60.529C42.722,60.564 42.66,60.599 42.594,60.635C40.233,60.711 37.75,60.152 35.848,58.771C38.207,57.156 40.477,55.426 42.689,53.738C44.781,52.142 46.943,50.492 49.134,48.979C55.146,44.825 61.065,40.825 66.725,37.088C67.619,36.498 68.605,35.797 69.643,35.058C72.223,33.223 75.148,31.142 77.661,30.088C78.425,29.768 78.785,28.888 78.464,28.125C78.145,27.361 77.267,27.001 76.501,27.322C73.681,28.505 70.612,30.688 67.904,32.614C66.896,33.331 65.94,34.012 65.073,34.585C59.394,38.334 53.459,42.346 47.429,46.512C45.18,48.065 42.989,49.737 40.869,51.354C38.58,53.1 36.227,54.886 33.805,56.525C33.705,56.355 33.587,56.203 33.498,56.022C32.766,54.514 32.962,52.618 33.171,50.609C33.225,50.089 33.279,49.564 33.318,49.041C46.072,40.289 59.26,31.585 72.577,23.151C73.276,22.708 73.485,21.781 73.042,21.081C72.598,20.381 71.671,20.173 70.972,20.617C58.15,28.737 45.452,37.109 33.137,45.534C33.052,45.172 32.949,44.814 32.802,44.465C36.01,42.336 39.118,40.05 42.154,37.816C48.353,33.255 54.763,28.539 61.84,25.334C62.594,24.992 62.929,24.104 62.587,23.349C62.245,22.594 61.357,22.257 60.602,22.601C53.24,25.936 46.7,30.747 40.376,35.4C36.11,38.538 31.7,41.783 27.129,44.494C26.42,44.914 26.183,45.827 26.598,46.539C26.728,46.762 26.91,46.932 27.116,47.058C27.112,47.061 27.107,47.063 27.103,47.067C21.881,51.395 4.75,77.74 4.022,78.86C3.661,79.417 3.708,80.144 4.139,80.65C4.431,80.992 4.851,81.176 5.281,81.176C5.486,81.176 5.693,81.134 5.888,81.047C6.471,80.789 12.459,78.133 19.643,74.871C20.066,74.836 20.487,74.785 20.898,74.71C21.424,74.614 21.832,74.253 22.018,73.791C30.093,70.108 39.049,65.933 43.431,63.588C43.656,63.571 43.881,63.555 44.102,63.529C44.645,63.521 45.184,63.383 45.55,63.29C46.34,63.088 46.824,62.292 46.639,61.497C46.624,61.433 46.605,61.369 46.582,61.309C46.747,61.196 46.928,61.074 47.128,60.941C47.158,60.921 47.188,60.9 47.217,60.878C53.65,55.901 60.304,51.027 67.006,46.382C69.349,44.727 71.716,42.938 74.222,41.043C80.344,36.414 86.654,31.644 93.079,28.5C93.487,28.493 93.891,28.32 94.181,27.989C94.187,27.983 94.193,27.976 94.198,27.97C94.567,27.801 94.937,27.637 95.307,27.48C95.998,27.185 96.365,26.425 96.166,25.702ZM30.359,47.428C30.113,47.597 29.862,47.765 29.616,47.935C29.587,47.955 29.565,47.98 29.538,48.001C29.499,47.739 29.396,47.484 29.214,47.265C29.112,47.142 28.992,47.046 28.864,46.964C29.313,46.711 29.765,46.462 30.225,46.226C30.313,46.597 30.346,47.005 30.359,47.428ZM28.99,49.4C29.024,49.616 29.1,49.829 29.232,50.021C29.458,50.35 29.793,50.556 30.155,50.633C29.935,52.779 29.749,55.167 30.8,57.332C30.979,57.7 31.18,58.043 31.392,58.375C31.177,58.824 31.186,59.369 31.471,59.822C31.756,60.275 32.243,60.523 32.742,60.523C32.88,60.523 33.019,60.503 33.154,60.465C34.512,61.697 36.152,62.54 37.895,63.044C32.752,65.567 25.394,68.962 18.902,71.912C17.826,71.902 17.237,71.483 16.647,70.47C16.064,69.469 15.608,67.802 15.766,67.29C16.282,66.953 16.522,66.343 16.414,65.762C21.535,58.361 26.707,51.313 28.99,49.4Z" style="fill-rule:nonzero;"/>
    </g>
</svg>
