<?xml version="1.0" encoding="UTF-8" standalone="no"?> <!-- Created with Vectornator for iOS (http://vectornator.io/) --><!DOCTYPE svg PUBLIC "-//W3C//DTD SVG 1.1//EN" "http://www.w3.org/Graphics/SVG/1.1/DTD/svg11.dtd">
<svg height="100%" style="fill-rule:nonzero;clip-rule:evenodd;stroke-linecap:round;stroke-linejoin:round;" xmlns:xlink="http://www.w3.org/1999/xlink" xmlns="http://www.w3.org/2000/svg" xml:space="preserve" width="100%" xmlns:vectornator="http://vectornator.io" version="1.1" viewBox="0 0 1024 1024">
<metadata>
<vectornator:setting key="DimensionsVisible" value="1"/>
<vectornator:setting key="PencilOnly" value="0"/>
<vectornator:setting key="SnapToPoints" value="0"/>
<vectornator:setting key="OutlineMode" value="0"/>
<vectornator:setting key="CMYKEnabledKey" value="0"/>
<vectornator:setting key="RulersVisible" value="1"/>
<vectornator:setting key="SnapToEdges" value="0"/>
<vectornator:setting key="GuidesVisible" value="1"/>
<vectornator:setting key="DisplayWhiteBackground" value="0"/>
<vectornator:setting key="doHistoryDisabled" value="0"/>
<vectornator:setting key="SnapToGuides" value="1"/>
<vectornator:setting key="TimeLapseWatermarkDisabled" value="0"/>
<vectornator:setting key="Units" value="Pixels"/>
<vectornator:setting key="DynamicGuides" value="0"/>
<vectornator:setting key="IsolateActiveLayer" value="0"/>
<vectornator:setting key="SnapToGrid" value="0"/>
</metadata>
<defs/>
<g id="Ebene 1" vectornator:layerName="Ebene 1" visibility="hidden">
<g opacity="1">
<path stroke="#000000" stroke-width="30" d="M604.791+148.509C604.791+146.351+564.174+156.524+551.526+166.27C529.112+183.542+507.402+207.911+500.35+237.313C492.055+271.901+502.29+304.155+513.928+336.108C522.196+358.812+530.608+381.668+542.127+402.711C572.209+457.664+628.74+504.021+686.255+521.487C696.436+524.578+707.006+526.643+717.588+527.037C727.039+527.39+736.7+526.493+745.787+523.707C755.063+520.863+764.174+516.543+771.897+510.386C779.784+504.099+786.234+495.767+791.741+487.075C797.829+477.468+802.572+466.854+806.363+455.994C815.182+430.726+818.501+403.011+817.851+376.07C817.492+361.2+817.212+346.059+813.673+331.668C809.129+313.187+802.73+294.98+793.83+278.385C782.726+257.681+768.988+238.522+754.142+220.662C746.594+211.581+728.251+180.807+698.692+163.371C661.861+141.645+613.114+133.583+610.024+132.147" fill="none" stroke-linecap="round" opacity="1" stroke-linejoin="round"/>
<path stroke="#000000" stroke-width="30" d="M497.974+174.051C488.355+193.396+479.779+213.256+470.016+232.527C451.015+270.034+308.758+518.822+278.789+562.017C256.126+594.682+233.192+627.157+210.574+659.852C175.661+710.32+144.011+762.9+98.7449+804.918" fill="none" stroke-linecap="round" opacity="1" stroke-linejoin="round"/>
<path stroke="#000000" stroke-width="30" d="M731.531+546.162C728.131+549.56+681.316+575.488+677.449+577.987C651.653+594.659+625.217+609.744+598.917+625.139C575.188+639.029+420.443+738.239+366.215+770.798C340.038+786.515+169.198+891.485+163.418+892.759" fill="none" stroke-linecap="round" opacity="1" stroke-linejoin="round"/>
<path stroke="#000000" stroke-width="30" d="M134.34+845.4C133.562+845.4+466.116+548.401+484.684+530.367C513.375+502.502+540.957+473.191+569.281+444.893C586.688+427.502+751.999+260.624+767.719+246.194C791.04+224.787+812.568+201.355+835.606+179.59C847.9+167.975+862.055+159.67+875.294+149.619C877.165+148.198+884.693+142.978+884.693+140.738C884.693+139.461+883.053+141.372+880.516+144.069" fill="none" stroke-linecap="round" opacity="1" stroke-linejoin="round"/>
<path stroke="#000000" stroke-width="30" d="M813.346+134.195C820.288+133.628+827.276+134.469+834.234+134.195C852.441+133.479+865.256+133.23+882.242+125.628C887.078+123.464+910.476+109.774+910.476+109.774C910.476+109.774+895.044+134.585+893.766+139.746C887.809+163.803+882.994+184.894+880.13+209.246" fill="none" stroke-linecap="round" opacity="1" stroke-linejoin="round"/>
</g>
</g>
<g id="Ebene 3" vectornator:layerName="Ebene 3" visibility="hidden">
<path stroke="#000000" stroke-width="30" d="M122.517+457.142C144.308+449.878+163.992+426.091+176.73+408.635C211.284+361.284+222.458+304.54+224.286+246.945C224.588+237.439+225.103+227.888+224.286+218.412C222.41+196.648+216.85+170.112+202.41+152.785C179.453+125.236+150.146+140.723+126.321+157.54C118.294+163.206+97.0149+195.369+95.4784+225.178C93.9967+253.92+112.007+280.205+117.761+292.599C132.728+324.835+152.382+357.579+180.535+380.102C208.046+402.111+257.633+415.993+292.767+411.488C307.499+409.6+317.39+404.264+329.86+396.271C348.175+384.53+365.539+367.734+376.465+348.715C385.734+332.579+406.176+247.5+438.287+206.998C453.338+188.016+472.559+162.913+493.857+148.849C518.002+132.906+543.839+129.193+551.47+129.007C564.661+128.685+581.068+132.532+593.319+136.616C614.496+143.675+635.737+154.203+655.142+165.149C680.938+179.701+701.705+198.845+719.818+222.216C741.119+249.701+764.929+282.243+774.032+316.377C780.726+341.481+780.19+366.633+773.08+391.515C768.38+407.966+761.512+424.874+750.254+438.12C731.824+459.802+703.22+469.865+676.067+475.213C631.521+483.987+593.82+478.76+554.324+456.191C514.831+433.624+473.899+388.53+488.697+339.204C495.008+318.166+511.853+297.676+527.692+283.088C552.484+260.254+579.017+256.719+611.391+257.407C621.537+257.623+641.886+259.489+670.658+272.567C699.429+285.645+717+302.68+726.476+309.719C748.6+326.154+820.933+387.132+837.756+398.173C864.191+415.52+892.814+424.804+924.308+424.804C928.112+424.804+948.444+425.038+949.988+421.951" fill="none" stroke-linecap="round" opacity="1" stroke-linejoin="round"/>
<path stroke="#000000" stroke-width="30" d="M907.188+367.737C913.407+370.847+916.813+377.778+921.455+382.955C930.742+393.314+942.249+407.112+952.842+416.244C958.084+420.763+979.187+429.845+977.571+431.462C975.541+433.492+950.952+440.728+942.379+445.729C926.201+455.166+910.758+465.878+895.775+477.115" fill="none" stroke-linecap="round" opacity="1" stroke-linejoin="round"/>
<path stroke="#000000" stroke-width="30" d="M86.3743+751.988C93.9319+749.663+102.127+749.666+110.073+749.135C126.89+748.01+143.753+747.516+160.561+746.281C221.774+741.787+282.62+735.313+343.968+732.015C400.771+728.96+457.223+722.954+513.98+719.65C588.653+715.303+663.816+715.127+738.603+715.846C790.798+716.348+843.035+716.822+895.22+717.748C903.125+717.888+911.014+718.496+918.918+718.699C927.121+718.909+936.599+721.249+940.556+713.943" fill="none" stroke-linecap="round" opacity="1" stroke-linejoin="round"/>
<path stroke="#000000" stroke-width="30" d="M892.26+668.409C900.089+671.295+900.706+671.802+903.463+673.575C908.693+676.94+913.599+680.951+918.918+684.129C927.351+689.168+935.974+693.799+944.678+698.201C955.228+703.538+979.711+714.382+979.711+715.791C979.711+718.109+917.291+754.362+886.964+776.326" fill="none" stroke-linecap="round" opacity="1" stroke-linejoin="round"/>
</g>
<g id="Ebene 2" vectornator:layerName="Ebene 2">
<g opacity="1">
<g opacity="1">
<path stroke="#000000" stroke-width="30" d="M324.03+170.262C319.19+170.944+314.217+171.243+309.609+173.141C288.229+181.945+268.375+196.533+250.721+213.451C217.267+245.511+201.814+282.348+181.018+325.742C174.858+338.597+168.28+351.212+162.992+364.613C147.949+402.731+140.309+443.683+137.867+485.387C134.702+539.432+140.269+594.74+149.772+646.781C155.463+677.948+165.882+716.397+175.382+746.202C193.577+803.288+210.721+840.596+265.143+851.209C317.633+861.445+358.677+839.343+388.031+807.721C417.384+776.099+425.877+760.303+435.795+738.918C446.317+716.23+452.266+690.702+457.427+665.496C466.19+622.703+471.07+577.98+476.656+534.489C478.806+517.747+483.619+467.495+476.511+418.748C470.09+374.715+452.021+331.488+447.813+322.863C438.555+303.886+427.877+285.674+415.365+269.597C405.638+257.097+392.932+248.482+381.715+237.925" fill="none" stroke-linecap="round" opacity="1" stroke-linejoin="round"/>
<path stroke="#000000" stroke-width="30" d="M287.618+586.985C287.618+591.681+287.618+586.985+287.618+586.985C286.426+586.46+284.475+586.083+283.622+586.985C280.762+590.01+279.76+594.09+277.629+597.55C269.074+611.44+258.511+624.305+249.66+638.049C235.889+659.436+237.084+703.032+258.65+719.929C268.949+727.998+289.059+732.823+302.601+732.255C325.232+731.305+337.292+705.519+343.554+689.994C357.008+656.642+365.813+607.355+332.567+579.942C327.437+575.712+321.25+572.215+314.587+570.257C307.924+568.299+300.463+567.137+293.611+568.496C286.479+569.911+280.426+574.252+274.632+578.181C267.352+583.117+260.453+588.63+254.655+594.909C229.53+622.116+232.94+652.226+238.673+684.712C241.353+699.898+244.491+717.67+264.643+722.57C294.072+729.725+311.615+707.097+319.581+685.592C330.19+656.955+331.03+623.071+310.592+597.55C304.486+589.926+294.295+581.703+282.623+581.703C259.518+581.703+251.294+607.952+247.663+623.082C240.902+651.253+246.91+678.787+272.634+697.918C277.787+701.75+283.238+705.675+289.615+707.603C295.293+709.319+301.935+710.244+307.595+708.483C314.068+706.47+319.505+701.908+323.577+697.038C329.054+690.486+332.599+682.735+335.563+675.027C339.297+665.319+342.006+655.252+343.554+645.093C345.018+635.49+346.328+625.601+344.553+616.039C339.819+590.54+305.331+575.59+279.627+588.746C242.981+607.501+255.873+662.224+279.627+684.712C283.717+688.584+288.969+691.708+294.61+693.516C300.277+695.332+306.76+696.637+312.589+695.277C318.839+693.819+324.513+690.028+328.571+685.592C333.155+680.582+335.79+674.228+337.561+667.984C343.962+645.418+337.445+623.638+315.586+609.876C307.781+604.962+291.901+599.184+281.624+603.713C273.777+607.172+267.135+621.974+265.642+628.365C261.986+644.016+265.236+657.253+278.628+667.984C286.215+674.063+303.15+685.619+313.588+675.908C321.409+668.631+325.719+650.927+326.573+642.452C327.223+636.014+327.644+629.283+325.575+623.082C319.592+605.153+291.546+608.13+280.625+619.561C265.931+634.941+272.99+650.994+288.616+662.701C292.067+665.286+295.364+668.343+299.604+669.745C303.669+671.088+308.63+672.195+312.589+670.625C316.296+669.155+318.17+665.18+319.581+661.821C321.578+657.07+322.409+651.918+322.578+646.854C323.092+631.465+315.827+620.607+297.606+618.68C293.625+618.259+289.168+617.915+285.62+619.561C278.417+622.902+277.272+631.225+276.63+637.169C275.294+649.535+284.086+660.49+297.606+664.462C299.84+665.118+302.314+665.846+304.598+665.343C313.824+663.31+313.592+650.676+310.592+645.093C305.918+636.397+287.455+622.492+276.63+632.767C270.966+638.143+270.815+646.634+269.638+653.897C267.997+664.02+266.124+681.143+283.622+679.429C287.077+679.091+290.718+678.488+293.611+676.788C299.126+673.547+304.598+666.203+304.598+660.06C304.598+652.94+290.403+648.892+284.621+646.854C282.37+646.06+279.951+645.707+277.629+645.093C276.62+644.826+275.244+643.457+274.632+644.212C269.79+650.187+272.518+658.946+273.633+666.223C275.334+677.315+276.873+690.542+289.615+696.157" fill="none" stroke-linecap="round" opacity="1" stroke-linejoin="round"/>
<path stroke="#ffffff" stroke-width="30" d="M308.594+688.674C318.804+674.654+300.864+681.112+299.604+689.994C298.661+696.643+311.686+707.434+314.587+702.32C317.519+697.151+304.961+689.002+300.603+688.233C299.95+688.118+298.903+687.709+298.605+688.233C297.763+689.718+300.985+690.901+302.601+691.755C304.584+692.804+307.344+690.389+308.594+688.674Z" fill="none" stroke-linecap="round" opacity="1" stroke-linejoin="round"/>
<path stroke="#ffffff" stroke-width="30" d="M307.595+692.636C307.262+693.223+306.929+693.809+306.596+694.396" fill="none" stroke-linecap="round" opacity="1" stroke-linejoin="round"/>
</g>
<g opacity="1">
<path stroke="#000000" stroke-width="30" d="M730.801+170.262C725.961+170.944+720.989+171.243+716.38+173.141C695+181.945+675.147+196.533+657.493+213.451C624.038+245.511+608.586+282.348+587.79+325.742C581.63+338.597+575.051+351.212+569.763+364.613C554.721+402.731+547.08+443.683+544.638+485.387C541.474+539.432+547.04+594.74+556.544+646.781C562.235+677.948+572.654+716.397+582.154+746.202C600.349+803.288+617.492+840.596+671.914+851.209C724.405+861.445+765.449+839.343+794.802+807.721C824.156+776.099+832.649+760.303+842.567+738.918C853.088+716.23+859.038+690.702+864.199+665.496C872.961+622.703+877.842+577.98+883.427+534.489C885.577+517.747+890.39+467.495+883.282+418.748C876.861+374.715+858.792+331.488+854.585+322.863C845.326+303.886+834.648+285.674+822.137+269.597C812.41+257.097+799.703+248.482+788.487+237.925" fill="none" stroke-linecap="round" opacity="1" stroke-linejoin="round"/>
<path stroke="#000000" stroke-width="30" d="M710.371+599.311C708.04+599.604+704.813+598.545+703.379+600.191C690.049+615.492+678.724+632.096+667.419+648.615C663.846+653.837+665.756+658.266+667.419+663.582C669.268+669.489+671.378+675.331+673.413+681.19C676.372+689.711+678.853+698.379+682.403+706.722C685.857+714.841+688.112+723.817+694.389+730.494C698.38+734.74+705.155+738.163+711.37+737.537C718.526+736.816+724.597+731.743+729.349+726.972C736.848+719.445+742.871+710.654+747.329+701.44C752.622+690.501+755.982+678.816+758.317+667.103C763.26+642.301+763.489+611.184+741.336+592.268C736.291+587.96+730.073+584.392+723.356+582.583C700.962+576.552+685.054+595.356+675.41+609.876C656.654+638.118+650.171+671.766+687.397+689.994C693.666+693.064+700.295+696.022+707.374+697.038C714.94+698.123+723.208+698.613+730.348+696.157C737.616+693.657+743.434+688.306+748.328+682.951C753.28+677.533+757.292+671.187+759.316+664.462C761.712+656.499+762.708+647.956+761.313+639.81C759.975+631.997+756.643+624.161+751.325+617.8C746.939+612.554+739.854+609.444+733.345+606.354C726.757+603.228+719.779+600.222+712.369+599.311C705.084+598.415+697.163+598.536+690.393+601.072C683.214+603.761+677.517+609.077+672.414+614.278C659.182+627.763+646.466+650.496+654.434+668.864C661.107+684.247+682.223+696.937+700.382+698.799C708.018+699.581+716.547+700.182+723.356+697.038C731.493+693.281+737.657+686.396+742.335+679.429C747.537+671.682+750.671+662.781+752.324+653.897C754.047+644.63+754.595+634.899+752.324+625.724C750.482+618.285+746.086+611.156+740.337+605.474C734.744+599.946+727.102+596.029+719.361+593.148C711.841+590.35+703.5+587.951+695.388+588.746C687.691+589.5+680.507+593.339+674.412+597.55C667.902+602.047+662.128+607.758+658.43+614.278C654.601+621.027+652.608+628.745+652.436+636.289C652.057+653.029+661.426+666.961+671.415+680.31C676.512+687.121+681.579+694.158+688.396+699.679C694.114+704.31+700.839+708.584+708.373+710.244C714.866+711.675+722.711+711.659+728.351+708.483C735.758+704.312+740.59+697.005+744.333+689.994C748.734+681.75+750.906+672.607+752.324+663.582C753.922+653.403+755.15+642.916+753.322+632.767C751.752+624.047+748.176+615.287+742.335+608.115C738.403+603.288+731.637+600.584+725.354+598.431C719.385+596.385+712.5+594.14+706.375+595.789C699.363+597.678+693.099+602.537+689.395+608.115C684.703+615.18+683.671+623.778+682.403+631.887C678.494+656.864+682.225+678.088+707.374+692.636C713.838+696.375+727.578+701.741+736.342+698.799C744.984+695.897+748.13+683.95+748.328+677.668C748.942+658.202+735.943+641.818+719.361+630.126C714.813+626.919+709.925+623.767+704.378+622.202C701.191+621.303+696.835+621.07+694.389+623.082C690.999+625.871+689.936+630.468+689.395+634.528C688.577+640.655+689.243+646.931+690.393+653.017C692.854+666.029+698.313+677.691+707.374+688.233C711.355+692.865+715.706+697.57+721.359+700.559C724.512+702.227+729.365+703.338+732.346+701.44C736.571+698.75+738.166+693.59+739.338+689.114C741.216+681.942+741.336+674.464+741.336+667.103C741.336+653.639+738.355+638.54+728.351+628.365C722.194+622.104+711.252+615.943+702.38+618.68C688.063+623.097+687.433+644.59+688.396+654.777C689.804+669.67+702.456+694.174+719.361+700.559C727.429+703.607+725.354+691.283+725.354+689.994C725.354+684.704+725.471+679.345+724.355+674.147C722.003+663.189+715.143+640.695+699.383+638.049C695.969+637.476+691.853+638.524+689.395+640.691C686.024+643.662+684.692+648.091+683.401+652.136C678.934+666.137+677.202+683.792+685.399+697.038C687.825+700.958+693.902+707.16+700.382+705.842C709.285+704.031+708.879+688.958+708.373+683.831C707.347+673.43+702.922+662.544+692.391+656.538C687.779+653.908+680.859+652.224+676.409+656.538C671.574+661.226+671.681+668.696+671.415+675.027C670.857+688.298+676.559+700.066+684.4+711.124C687.317+715.238+692.053+724.405+700.382+722.57C706.97+721.118+704.993+710.923+704.378+704.961C703.047+692.055+694.5+662.139+673.413+664.462C665.645+665.318+665.167+673.958+664.423+678.549C663.668+683.206+663.424+687.931+663.424+692.636C663.424+704.927+668.884+740.589+691.392+737.537C700.884+736.25+702.845+725.168+703.379+719.048C704.685+704.081+701.924+689.592+689.395+678.549C686.098+675.644+676.141+670.383+670.416+673.266C661.173+677.922+662.591+697.394+664.423+704.081C667.361+714.809+689.804+747.076+705.377+745.461C720.567+743.886+731.34+720.556+735.343+710.244C744.735+686.044+731.941+675.435+717.363+656.538C713.415+651.421+708.24+643.394+700.382+641.571C684.005+637.773+675.339+661.084+672.414+670.625C669.449+680.295+667.188+690.737+669.417+700.559C672.901+715.912+694.995+733.649+713.368+726.092C725.639+721.044+735.902+710.322+741.336+699.679C753.333+676.18+746.128+654.288+724.355+638.049C718.971+634.034+705.526+626.604+697.386+626.604C681.897+626.604+673.229+646.622+670.416+656.538C668.623+662.86+667.243+669.393+667.419+675.908C668.068+699.931+683.233+715.504+709.372+719.048C713.991+719.675+718.733+720.532+723.356+719.929C747.652+716.756+753.322+693.112+753.322+675.027C753.322+670.295+753.505+665.265+751.325+660.94C745.25+648.893+719.646+639.585+705.377+641.571C695.267+642.978+687.733+653.597+684.4+660.94C678.022+674.995+674.789+698.251+688.396+710.244C695.361+716.383+706.819+716.663+715.365+713.766C718.039+712.859+722.357+711.888+722.357+709.364C722.357+703.593+712.303+695.338+709.372+690.875C706.536+686.557+704.293+681.947+701.381+677.668" fill="none" stroke-linecap="round" opacity="1" stroke-linejoin="round"/>
<path stroke="#ffffff" stroke-width="30" d="M725.853+692.636C725.756+689.959+727.912+687.344+727.352+684.712C726.824+682.23+722.919+688.399+722.357+690.875C721.835+693.177+721.308+695.76+722.357+697.918C724.347+702.01+732.854+704.401+736.342+700.559C740.661+695.8+719.537+686.006+718.362+689.114C716.47+694.116+718.348+699.667+722.357+703.201C722.87+703.652+730.16+708.37+729.349+704.081C728.613+700.184+725.997+696.585+725.853+692.636Z" fill="none" stroke-linecap="round" opacity="1" stroke-linejoin="round"/>
<path stroke="#ffffff" stroke-width="30" d="M728.85+698.799C730.247+696.658+724.725+686.276+723.356+693.516C723.192+694.384+722.985+695.34+723.356+696.157C724.436+698.537+727.682+700.587+728.85+698.799Z" fill="none" stroke-linecap="round" opacity="1" stroke-linejoin="round"/>
<path stroke="#ffffff" stroke-width="30" d="M729.349+695.277C731.717+692.147+732.548+692.636+729.349+692.636" fill="none" stroke-linecap="round" opacity="1" stroke-linejoin="round"/>
</g>
</g>
</g>
</svg>
